# AST/ASF file generated using VICON BodyLanguage
# -----------------------------------------------
:version 1.10
:name VICON
:units
  mass 1.0
  length 0.45
  angle deg
:documentation
   .ast/.asf automatically generated from VICON data using
   VICON BodyBuilder and BodyLanguage model FoxedUp or BRILLIANT.MOD
:root
   order TX TY TZ RX RY RZ
   axis XYZ
   position 0 0 0  
   orientation 0 0 0 
:bonedata
  begin
     id 1 
     name lhipjoint
     direction 0.690799 -0.707083 0.151096 
     length 2.54797 
     axis 0 0 0  XYZ
  end
  begin
     id 2 
     name lfemur
     direction 0.34202 -0.939693 0  
     length 7.21646  
     axis 0 0 20  XYZ
    dof rx ry rz
    limits (-160.0 20.0)
           (-70.0 70.0)
           (-60.0 70.0)
  end
  begin
     id 3 
     name ltibia
     direction 0.34202 -0.939693 0   
     length 8.16759   
     axis 0 0 20   XYZ
    dof rx
    limits (-10.0 170.0)
  end
  begin
     id 4 
     name lfoot
     direction 0.0487203 -0.133858 0.989802   
     length 1.93375   
     axis -90 7.62852e-016 20   XYZ
    dof rx rz
    limits (-45.0 90.0)
           (-70.0 20.0)
  end
  begin
     id 5 
     name ltoes
     direction 1.53453e-011 -4.21783e-011 1   
     length 0.979747   
     axis -90 7.62852e-016 20   XYZ
    dof rx
    limits (-90.0 20.0)
  end
  begin
     id 6 
     name rhipjoint
     direction -0.694693 -0.703425 0.150315   
     length 2.56122  
     axis 0 0 0  XYZ 
  end
  begin
     id 7 
     name rfemur
     direction -0.34202 -0.939693 0   
     length 7.36786   
     axis 0 0 -20   XYZ
    dof rx ry rz
    limits (-160.0 20.0)
           (-70.0 70.0)
           (-70.0 60.0)
  end
  begin
     id 8 
     name rtibia
     direction -0.34202 -0.939693 0   
     length 8.07288   
     axis 0 0 -20   XYZ
    dof rx
    limits (-10.0 170.0)
 end
 begin
     id 9 
     name rfoot
     direction -0.0428397 -0.117701 0.992125   
     length 1.88295  
     axis -90 -7.62852e-016 -20   XYZ
    dof rx rz
    limits (-45.0 90.0)
           (-20.0 70.0)
  end
  begin
     id 10 
     name rtoes
     direction -1.53456e-011 -4.2187e-011 1   
     length 0.955578   
     axis -90 -7.62852e-016 -20   XYZ
    dof rx
    limits (-90.0 20.0)
  end
  begin
     id 11 
     name lowerback
     direction 0.0288145 0.999398 -0.0193241   
     length 1.92149   
     axis 0 0 0   XYZ
    dof rx ry rz
    limits (-20.0 45.0)
           (-30.0 30.0)
           (-30.0 30.0)
  end
  begin
     id 12 
     name upperback
     direction 0.0233784 0.998099 0.0570278   
     length 1.90435   
     axis 0 0 0   XYZ
    dof rx ry rz
    limits (-20.0 45.0)
           (-30.0 30.0)
           (-30.0 30.0)
  end
  begin
     id 13 
     name thorax
     direction 0.0096694 0.997833 0.0650817   
     length 1.9111   
     axis 0 0 0   XYZ
    dof rx ry rz
    limits (-20.0 45.0)
           (-30.0 30.0)
           (-30.0 30.0)
  end
  begin
     id 14 
     name lowerneck
     direction 0.00516803 0.999916 0.0118722   
     length 1.74664   
     axis 0 0 0   XYZ
    dof rx ry rz
    limits (-20.0 45.0)
           (-30.0 30.0)
           (-30.0 30.0)
  end
  begin
     id 15 
     name upperneck
     direction -0.0510851 0.996117 -0.071696   
     length 1.68498   
     axis 0 0 0   XYZ
    dof rx ry rz
    limits (-20.0 45.0)
           (-30.0 30.0)
           (-30.0 30.0)
  end
  begin
     id 16
     name head
     direction -0.019188 0.999436 -0.0275702  
     length 1.83483  
     axis 0 0 0   XYZ
    dof rx ry rz
    limits (-20.0 45.0)
           (-30.0 30.0)
           (-30.0 30.0)
  end
  begin
     id 17 
     name lclavicle
     direction 0.967006 0.248456 -0.0562957  
     length 3.39395  
     axis 0 0 0   XYZ
    dof ry rz
    limits (-20.0 10.0)
           (0.0 20.0)
  end
  begin
     id 18 
     name lhumerus
     direction 1 -4.48962e-011 -5.62711e-019   
     length 5.24318   
     axis 180 -30 -90   XYZ
    dof rx ry rz
    limits (-60.0 90.0)
           (-90.0 90.0)
           (-90.0 90.0)
  end
  begin
     id 19
     name lradius
     direction 1 -4.48966e-011 7.90625e-027   
     length 2.98999   
     axis 180 -30 -90   XYZ
    dof rx
    limits (-10.0 170.0)
  end
  begin
     id 20
     name lwrist
     direction 1 -4.48959e-011 1.61068e-026   
     length 1.49499   
     axis -9.31229e-015 90 90   XYZ
    dof ry
    limits (-180.0 0.0)
 end
  begin
     id 21 
     name lhand
     direction 1 -4.49017e-011 3.22136e-026   
     length 0.726745   
     axis -2.0555e-014 90 90   XYZ
    dof rx rz
    limits (-90.0 90.0)
           (-45.0 45.0)
  end
  begin
     id 22 
     name lfingers
     direction 1 -4.4898e-011 6.44272e-026   
     length 0.58592   
     axis -4.11101e-014 90 90   XYZ
    dof rx
    limits (0.0 90.0)
  end
  begin
     id 23
     name lthumb
     direction 0.707107 -6.34922e-011 0.707107   
     length 0.841268   
     axis -90 45 2.85299e-015   XYZ
    dof rx rz
    limits (-45.0 45.0)
           (-45.0 45.0)
  end
  begin
     id 24 
     name rclavicle
     direction -0.972232 0.230238 0.0419005   
     length 3.40416  
     axis 0 0 0   XYZ 
    dof ry rz
    limits (-10.0 20.0)
           (-20.0 0.0)
  end
  begin
     id 25 
     name rhumerus
     direction -1 -4.48976e-011 2.48487e-027  
     length 5.37045   
     axis 180 30 90   XYZ
    dof rx ry rz
    limits (-90.0 60.0)
           (-90.0 90.0)
           (-90.0 90.0)
  end
  begin
     id 26 
     name rradius
     direction -1 -4.48942e-011 7.87951e-027   
     length 2.92792   
     axis 180 30 90   XYZ
    dof rx
    limits (-10.0 170.0)
  end
  begin
     id 27 
     name rwrist
     direction -1 -4.48969e-011 1.61068e-026   
     length 1.46396   
     axis -9.31229e-015 -90 -90   XYZ
    dof ry
    limits (-180.0 0.0)
  end
  begin
     id 28
     name rhand
     direction -1 -4.49043e-011 3.22136e-026   
     length 0.784497   
     axis -2.0555e-014 -90 -90   XYZ
    dof rx rz
    limits (-90.0 90.0)
           (-45.0 45.0)
  end
  begin
     id 29
     name rfingers
     direction -1 -4.48823e-011 6.44272e-026   
     length 0.632482   
     axis -4.11101e-014 -90 -90   XYZ
    dof rx
    limits (0.0 90.0)
  end
  begin
     id 30
     name rthumb
     direction -0.707107 -6.34923e-011 0.707107   
     length 0.908121   
     axis -90 -45 -2.85299e-015   XYZ
    dof rx rz
    limits (-45.0 45.0)
           (-45.0 45.0)
  end
:hierarchy
  begin
    root lhipjoint rhipjoint lowerback
    lhipjoint lfemur
    lfemur ltibia
    ltibia lfoot
    lfoot ltoes
    rhipjoint rfemur
    rfemur rtibia
    rtibia rfoot
    rfoot rtoes
    lowerback upperback
    upperback thorax
    thorax lowerneck lclavicle rclavicle
    lowerneck upperneck
    upperneck head
    lclavicle lhumerus
    lhumerus lradius
    lradius lwrist
    lwrist lhand lthumb
    lhand lfingers
    rclavicle rhumerus
    rhumerus rradius
    rradius rwrist
    rwrist rhand rthumb
    rhand rfingers
  end

#!OML:ASF E:\Style6\Style6.ASF
:FULLY-SPECIFIED
:DEGREES
462
root 0.0689078 16.7778 0.557898 -9.02034 -0.753756 -1.91272
lowerback -0.610395 4.96983 3.48877
upperback 1.5134 6.56483 0.672057
thorax 2.20865 3.32933 -1.06445
lowerneck -4.25417 1.67915 3.36622
upperneck 28.9604 4.21692 -7.68669
head 10.1003 1.57607 -2.89174
rclavicle 5.55852e-014 -3.97569e-015
rhumerus -17.7727 61.3325 -113.705
rradius 87.3788
rwrist -68.3308
rhand -52.8932 -21.8538
rfingers 7.12502
rthumb -25.3635 -50.187
lclavicle 5.55852e-014 -3.97569e-015
lhumerus -24.9413 -57.2491 72.2033
lradius 99.3731
lwrist 27.5426
lhand -30.778 39.9616
lfingers 7.12502
lthumb -4.0688 69.9025
rfemur -12.5075 -7.59965 19.1505
rtibia 49.7931
rfoot -20.2686 5.36303
rtoes -7.43576
lfemur -10.8969 1.46894 -14.2863
ltibia 50.4862
lfoot -23.4249 5.99512
ltoes -29.1781
463
root 0.0611438 16.7632 0.573772 -9.39022 -0.937492 -2.08445
lowerback -0.506021 5.08103 3.75764
upperback 1.66238 6.71016 0.696542
thorax 2.33929 3.40976 -1.18051
lowerneck -4.02978 1.50351 3.34215
upperneck 28.7616 4.016 -7.90355
head 9.97264 1.46579 -2.98186
rclavicle 2.3382e-014 2.18663e-015
rhumerus -17.858 62.5345 -113.814
rradius 88.3205
rwrist -69.2632
rhand -53.6755 -20.3644
rfingers 7.12502
rthumb -26.1127 -48.5891
lclavicle 2.3382e-014 2.18663e-015
lhumerus -26.528 -56.2957 72.9865
lradius 100.561
lwrist 26.9702
lhand -31.1481 39.7376
lfingers 7.12502
lthumb -4.42611 69.6713
rfemur -12.1307 -7.32941 19.3892
rtibia 49.9459
rfoot -20.4785 5.05268
rtoes -8.71132
lfemur -10.4732 1.53328 -14.0221
ltibia 50.6634
lfoot -23.6141 6.06765
ltoes -29.1276
464
root 0.0527243 16.7447 0.586509 -9.65959 -1.04603 -2.27282
lowerback -0.450183 5.17778 4.02912
upperback 1.77724 6.83487 0.712628
thorax 2.46354 3.47993 -1.30414
lowerneck -3.82046 1.30267 3.27308
upperneck 28.5362 3.77245 -8.08575
head 9.83388 1.33457 -3.05383
rclavicle 2.65874e-015 1.61016e-014
rhumerus -17.7485 63.564 -113.718
rradius 89.1612
rwrist -69.7641
rhand -53.8373 -19.6581
rfingers 7.12502
rthumb -26.2676 -47.8597
lclavicle 2.65874e-015 1.61016e-014
lhumerus -27.8187 -55.3331 73.6496
lradius 101.685
lwrist 26.5885
lhand -31.4182 39.6806
lfingers 7.12502
lthumb -4.68694 69.6088
rfemur -11.8523 -7.1407 19.6491
rtibia 50.055
rfoot -20.6438 4.87078
rtoes -9.08406
lfemur -10.1799 1.48881 -13.7626
ltibia 50.8064
lfoot -23.7274 6.13262
ltoes -29.0644
465
root 0.0514424 16.7319 0.605555 -10.0315 -1.18604 -2.28752
lowerback -0.398949 5.24369 4.18896
upperback 1.95825 6.91892 0.711728
thorax 2.6462 3.53029 -1.3813
lowerneck -3.65413 1.14713 3.10196
upperneck 28.3254 3.59222 -8.21358
head 9.71163 1.22628 -3.08155
rclavicle 2.52457e-014 1.59028e-014
rhumerus -17.529 64.6314 -113.504
rradius 90.0309
rwrist -70.0916
rhand -53.739 -20.0634
rfingers 7.12502
rthumb -26.1735 -48.2791
lclavicle 2.52457e-014 1.59028e-014
lhumerus -28.8291 -54.1771 74.3308
lradius 102.563
lwrist 26.2309
lhand -31.5402 39.4003
lfingers 7.12502
lthumb -4.80475 69.3258
rfemur -11.4328 -6.93857 19.6506
rtibia 50.1439
rfoot -20.7471 4.93177
rtoes -8.61744
lfemur -9.69758 1.41449 -13.7573
ltibia 50.8857
lfoot -23.8034 6.48355
ltoes -29.6424
466
root 0.0530297 16.7271 0.63 -10.5849 -1.35463 -2.25881
lowerback -0.265487 5.30708 4.37282
upperback 2.21021 7.00246 0.692087
thorax 2.86232 3.58345 -1.49391
lowerneck -3.52122 0.987548 2.94141
upperneck 28.1297 3.40625 -8.34887
head 9.6019 1.11474 -3.11394
rclavicle -6.73135e-014 -4.96962e-015
rhumerus -17.1148 65.6548 -113.15
rradius 90.9223
rwrist -70.2687
rhand -53.7379 -20.867
rfingers 7.12502
rthumb -26.1724 -49.0828
lclavicle -6.73135e-014 -4.96962e-015
lhumerus -29.6142 -53.0044 74.9078
lradius 103.33
lwrist 25.6487
lhand -31.5678 39.0242
lfingers 7.12502
lthumb -4.83141 68.9491
rfemur -10.7745 -6.74524 19.556
rtibia 50.2179
rfoot -20.863 5.04574
rtoes -8.21776
lfemur -8.94214 1.35319 -13.8098
ltibia 50.8698
lfoot -23.9095 6.8537
ltoes -30.0742
467
root 0.0526337 16.7224 0.651122 -10.9231 -1.48043 -2.16075
lowerback -0.297327 5.347 4.42999
upperback 2.37875 7.05096 0.634328
thorax 3.07248 3.61567 -1.56663
lowerneck -3.3241 0.823089 2.84267
upperneck 27.9032 3.21217 -8.52546
head 9.46989 1.00366 -3.17124
rclavicle -5.643e-014 -1.80894e-014
rhumerus -16.6129 66.6249 -112.772
rradius 91.5894
rwrist -69.9859
rhand -53.1805 -21.1968
rfingers 7.12502
rthumb -25.6386 -49.4907
lclavicle -5.643e-014 -1.80894e-014
lhumerus -30.4483 -51.798 75.3494
lradius 104.303
lwrist 24.8955
lhand -31.5297 38.8948
lfingers 7.12502
lthumb -4.79463 68.8206
rfemur -10.3909 -6.57829 19.4318
rtibia 50.3178
rfoot -21.0128 5.03268
rtoes -8.66011
lfemur -8.42507 1.28358 -13.9408
ltibia 50.8019
lfoot -23.9678 7.0725
ltoes -29.9209
468
root 0.0521566 16.7158 0.671766 -10.932 -1.5815 -1.95641
lowerback -0.612256 5.40588 4.33425
upperback 2.40328 7.11688 0.544776
thorax 3.27849 3.65044 -1.56805
lowerneck -3.0545 0.647652 2.67368
upperneck 27.7253 3.00119 -8.64582
head 9.33973 0.884601 -3.19809
rclavicle -2.6339e-014 1.03368e-014
rhumerus -16.4249 67.3151 -112.658
rradius 92.2049
rwrist -69.8185
rhand -52.734 -20.9263
rfingers 7.12502
rthumb -25.2109 -49.281
lclavicle -2.6339e-014 1.03368e-014
lhumerus -31.4688 -50.5712 75.8875
lradius 105.421
lwrist 24.0252
lhand -31.3496 38.9152
lfingers 7.12502
lthumb -4.62076 68.8448
rfemur -10.3769 -6.43997 19.2273
rtibia 50.4357
rfoot -21.1537 4.96094
rtoes -9.81255
lfemur -8.24641 1.21925 -14.2092
ltibia 50.7283
lfoot -23.9612 7.30433
ltoes -29.8231
469
root 0.0533163 16.7099 0.696278 -10.8423 -1.82023 -1.74636
lowerback -1.05334 5.50135 4.26253
upperback 2.41171 7.22569 0.467662
thorax 3.54305 3.70689 -1.55438
lowerneck -2.78538 0.487607 2.53548
upperneck 27.4439 2.82757 -8.88282
head 9.17759 0.776687 -3.26446
rclavicle 9.34039e-014 4.77083e-015
rhumerus -15.9902 68.1094 -112.268
rradius 93.1435
rwrist -70.2607
rhand -53.0954 -21.5987
rfingers 7.12502
rthumb -25.5571 -49.9043
lclavicle 9.34039e-014 4.77083e-015
lhumerus -32.5509 -49.1982 76.5009
lradius 106.574
lwrist 23.0126
lhand -31.1922 38.9596
lfingers 7.12502
lthumb -4.46871 68.8924
rfemur -10.4967 -6.18671 19.047
rtibia 50.5655
rfoot -21.2582 4.93733
rtoes -10.3028
lfemur -8.14561 1.28717 -14.4721
ltibia 50.6739
lfoot -23.969 7.62309
ltoes -29.9506
470
root 0.0534132 16.7039 0.720973 -10.9329 -2.20073 -1.74786
lowerback -1.33524 5.6097 4.42956
upperback 2.49914 7.34965 0.465511
thorax 3.82271 3.77756 -1.60228
lowerneck -2.51791 0.318926 2.43223
upperneck 27.0976 2.63623 -9.14993
head 8.9928 0.662579 -3.346
rclavicle -1.25483e-014 -1.98785e-015
rhumerus -15.0738 69.138 -111.394
rradius 94.1307
rwrist -70.9694
rhand -53.4102 -22.2053
rfingers 7.12502
rthumb -25.8586 -50.4672
lclavicle -1.25483e-014 -1.98785e-015
lhumerus -33.541 -47.8444 77.082
lradius 107.899
lwrist 22.0694
lhand -31.2116 39.2072
lfingers 7.12502
lthumb -4.48743 69.1396
rfemur -10.4209 -5.78158 19.1288
rtibia 50.6725
rfoot -21.3251 4.92271
rtoes -10.3613
lfemur -7.83751 1.4565 -14.4503
ltibia 50.6152
lfoot -23.9754 7.95803
ltoes -30.2132
471
root 0.0531804 16.6994 0.743038 -11.1286 -2.56902 -1.76223
lowerback -1.46693 5.67418 4.60342
upperback 2.61584 7.42138 0.459818
thorax 4.04719 3.82296 -1.67407
lowerneck -2.32419 0.175454 2.34919
upperneck 26.8017 2.46755 -9.36909
head 8.84172 0.563173 -3.41286
rclavicle -7.36e-014 -4.37326e-015
rhumerus -14.1043 70.212 -110.477
rradius 94.9636
rwrist -71.4943
rhand -53.5782 -21.5987
rfingers 7.12502
rthumb -26.0195 -49.8371
lclavicle -7.36e-014 -4.37326e-015
lhumerus -34.5499 -46.4811 77.5897
lradius 109.296
lwrist 20.9729
lhand -31.27 39.2289
lfingers 7.12502
lthumb -4.54384 69.1601
rfemur -10.2116 -5.38585 19.2158
rtibia 50.7494
rfoot -21.3846 4.99009
rtoes -10.0253
lfemur -7.41641 1.59718 -14.4089
ltibia 50.534
lfoot -23.9924 8.22741
ltoes -30.4562
472
root 0.0550826 16.6996 0.762917 -11.2483 -2.85522 -1.57367
lowerback -1.63456 5.69994 4.55026
upperback 2.69711 7.44934 0.399831
thorax 4.2296 3.83992 -1.68051
lowerneck -2.18204 0.0621086 2.25438
upperneck 26.5531 2.34952 -9.6043
head 8.72119 0.483178 -3.47996
rclavicle 1.97542e-014 3.57812e-015
rhumerus -13.2294 71.2229 -109.52
rradius 95.7742
rwrist -71.8139
rhand -53.8761 -20.5053
rfingers 7.12502
rthumb -26.3047 -48.7015
lclavicle 1.97542e-014 3.57812e-015
lhumerus -35.456 -44.9405 77.9767
lradius 110.482
lwrist 19.5165
lhand -30.8355 38.4109
lfingers 7.12502
lthumb -4.12431 68.3508
rfemur -10.0841 -5.06931 19.048
rtibia 50.8053
rfoot -21.4427 5.1044
rtoes -9.53704
lfemur -7.06348 1.69528 -14.632
ltibia 50.4102
lfoot -24.0111 8.48619
ltoes -30.5418
